<svg width="59" height="14" viewBox="0 0 59 14" fill="none" xmlns="http://www.w3.org/2000/svg">
<path d="M4.09196 9.88799C3.60396 9.88799 3.20396 9.78799 2.89196 9.58799C2.58796 9.38799 2.36396 9.12399 2.21996 8.79599C2.08396 8.45999 2.01596 8.09999 2.01596 7.71599C1.93596 7.64399 1.86396 7.56399 1.79996 7.47599C1.73596 7.38799 1.67196 7.29199 1.60796 7.18799C1.59996 7.30799 1.57596 7.42799 1.53596 7.54799C1.50396 7.65999 1.45996 7.75599 1.40396 7.83599C1.56396 7.95599 1.64396 8.14399 1.64396 8.39999C1.64396 8.53599 1.60796 8.68399 1.53596 8.84399C1.47996 8.97199 1.38396 9.10399 1.24796 9.23999C1.11196 9.38399 0.959958 9.49999 0.791958 9.58799C0.631958 9.68399 0.479958 9.73199 0.335958 9.73199C0.311958 9.73199 0.287958 9.72799 0.263958 9.71999C0.239958 9.71999 0.215958 9.71599 0.191958 9.70799C0.111958 9.68399 0.059958 9.65199 0.035958 9.61199C0.011958 9.57999 -4.20026e-05 9.55599 -4.20026e-05 9.53999C0.151958 9.55599 0.259958 9.49199 0.323958 9.34799C0.395958 9.21199 0.431958 9.08399 0.431958 8.96399C0.431958 8.90799 0.427958 8.85199 0.419958 8.79599C0.411958 8.73199 0.407958 8.66399 0.407958 8.59199C0.407958 8.53599 0.411958 8.47599 0.419958 8.41199C0.427958 8.34799 0.447958 8.27599 0.479958 8.19599C0.527958 8.06799 0.611958 7.95999 0.731958 7.87199C0.851958 7.77599 0.979958 7.72799 1.11596 7.72799C1.17996 7.72799 1.23996 7.73999 1.29596 7.76399C1.34396 7.69999 1.38396 7.60399 1.41596 7.47599C1.45596 7.33999 1.47596 7.20399 1.47596 7.06799C1.47596 7.02799 1.47196 6.99199 1.46396 6.95999C1.46396 6.91999 1.45996 6.88399 1.45196 6.85199C1.29196 6.43599 1.21596 5.98799 1.22396 5.50799C1.09596 5.73199 0.915958 5.84399 0.683958 5.84399C0.603958 5.84399 0.531958 5.81999 0.467958 5.77199C0.403958 5.71599 0.371958 5.63999 0.371958 5.54399C0.371958 5.45599 0.391958 5.38799 0.431958 5.33999C0.479958 5.28399 0.507958 5.29999 0.515958 5.38799C0.523958 5.45199 0.563958 5.49999 0.635958 5.53199C0.715958 5.56399 0.799958 5.57599 0.887958 5.56799C0.935958 5.55999 0.991958 5.54399 1.05596 5.51999C1.12796 5.48799 1.18396 5.43999 1.22396 5.37599C1.25596 4.80799 1.39596 4.22399 1.64396 3.62399C1.89996 3.02399 2.27596 2.47599 2.77196 1.97999C3.04396 1.70799 3.33996 1.47199 3.65996 1.27199C3.53996 1.27199 3.41996 1.26399 3.29996 1.24799C3.18796 1.22399 3.09196 1.19199 3.01196 1.15199C2.95596 1.23999 2.86796 1.31599 2.74796 1.37999C2.62796 1.43599 2.48796 1.46399 2.32796 1.46399C2.23996 1.46399 2.13996 1.45199 2.02796 1.42799C1.88396 1.37999 1.72796 1.29599 1.55996 1.17599C1.39996 1.04799 1.26396 0.903994 1.15196 0.743994C1.03996 0.583994 0.983958 0.431993 0.983958 0.287993C0.983958 0.175993 1.00396 0.103994 1.04396 0.0719941C1.08396 0.0319936 1.11196 0.00799346 1.12796 -6.4373e-06C1.12796 0.127994 1.18396 0.219994 1.29596 0.275994C1.41596 0.331994 1.53196 0.359994 1.64396 0.359994C1.69196 0.359994 1.74796 0.351994 1.81196 0.335994C1.87596 0.319994 1.94396 0.303994 2.01596 0.287993C2.08796 0.271994 2.17196 0.263994 2.26796 0.263994C2.30796 0.263994 2.34796 0.267994 2.38796 0.275994C2.42796 0.275994 2.47196 0.279994 2.51996 0.287993C2.66396 0.319993 2.79196 0.395994 2.90396 0.515994C3.01596 0.627994 3.07196 0.755994 3.07196 0.899993C3.07196 0.955994 3.06796 0.999994 3.05996 1.03199C3.18796 1.08799 3.35196 1.11599 3.55196 1.11599C3.63996 1.11599 3.72396 1.11199 3.80396 1.10399C3.89196 1.08799 3.97596 1.06399 4.05596 1.03199C4.46396 0.815994 4.89196 0.647994 5.33996 0.527994C5.79596 0.407994 6.25196 0.347994 6.70796 0.347994C7.17996 0.347994 7.63996 0.415994 8.08796 0.551994C8.53596 0.687994 8.94796 0.899994 9.32396 1.18799C9.65196 1.42799 9.89996 1.74399 10.068 2.13599C10.236 2.52799 10.32 2.96799 10.32 3.45599C10.32 3.84799 10.26 4.26799 10.14 4.71599C10.028 5.15599 9.84796 5.61199 9.59996 6.08399C9.33596 6.58799 8.99996 7.06799 8.59196 7.52399C8.19196 7.97999 7.74396 8.38799 7.24796 8.74799C6.75996 9.09999 6.24396 9.37599 5.69996 9.57599C5.16396 9.78399 4.62796 9.88799 4.09196 9.88799ZM4.24796 9.63599C4.64796 9.63599 5.06796 9.53599 5.50796 9.33599C5.95596 9.13599 6.39996 8.86799 6.83996 8.53199C7.27996 8.18799 7.69196 7.79999 8.07596 7.36799C8.46796 6.92799 8.79996 6.46799 9.07196 5.98799C9.36796 5.48399 9.58396 4.99599 9.71996 4.52399C9.85596 4.05199 9.92396 3.61599 9.92396 3.21599C9.92396 2.38399 9.67596 1.76399 9.17996 1.35599C8.88396 1.10799 8.55196 0.927994 8.18396 0.815994C7.82396 0.703994 7.44396 0.647994 7.04396 0.647994C6.58796 0.647994 6.12396 0.715994 5.65196 0.851994C5.17996 0.987994 4.72796 1.17999 4.29596 1.42799C3.87196 1.66799 3.49196 1.95599 3.15596 2.29199C3.01996 2.42799 2.89596 2.56399 2.78396 2.69999C2.75996 2.77999 2.74796 2.85999 2.74796 2.93999C2.74796 2.99599 2.75196 3.04799 2.75996 3.09599C2.77596 3.14399 2.78796 3.18799 2.79596 3.22799C2.83596 3.33199 2.89196 3.41999 2.96396 3.49199C3.04396 3.56399 3.11996 3.58399 3.19196 3.55199C3.20796 3.54399 3.22396 3.53999 3.23996 3.53999C3.26396 3.53999 3.27596 3.55599 3.27596 3.58799C3.27596 3.62799 3.25196 3.67199 3.20396 3.71999C3.11596 3.80799 3.02396 3.85199 2.92796 3.85199C2.82396 3.85199 2.73196 3.80799 2.65196 3.71999C2.57196 3.62399 2.52396 3.50799 2.50796 3.37199V3.28799C2.50796 3.24799 2.50796 3.20399 2.50796 3.15599C2.51596 3.10799 2.52396 3.06399 2.53196 3.02399C2.22796 3.46399 1.99996 3.91999 1.84796 4.39199C1.70396 4.85599 1.63196 5.30399 1.63196 5.73599C1.63196 6.35199 1.77196 6.87199 2.05196 7.29599C2.07596 7.08799 2.11996 6.88399 2.18396 6.68399C2.24796 6.47599 2.32396 6.27599 2.41196 6.08399C2.65196 5.58799 2.98396 5.07599 3.40796 4.54799C3.83996 4.01999 4.33596 3.54799 4.89596 3.13199C4.87196 3.13999 4.84796 3.14399 4.82396 3.14399C4.79996 3.14399 4.77596 3.14399 4.75196 3.14399C4.64796 3.14399 4.55196 3.12399 4.46396 3.08399C4.38396 3.03599 4.32796 2.96799 4.29596 2.87999C4.28796 2.86399 4.28396 2.83999 4.28396 2.80799C4.28396 2.71999 4.31596 2.64799 4.37996 2.59199C4.45196 2.52799 4.50396 2.49599 4.53596 2.49599C4.57596 2.49599 4.57996 2.52799 4.54796 2.59199C4.51596 2.64799 4.52396 2.71199 4.57196 2.78399C4.61996 2.84799 4.68396 2.89999 4.76396 2.93999C4.82796 2.97199 4.90396 2.98799 4.99196 2.98799C5.00796 2.98799 5.02796 2.98799 5.05196 2.98799C5.07596 2.98799 5.09596 2.98399 5.11196 2.97599C5.55196 2.67199 6.01596 2.43199 6.50396 2.25599C6.99996 2.07199 7.50396 1.97999 8.01596 1.97999C8.18396 1.97999 8.35196 1.99199 8.51996 2.01599C8.69596 2.03199 8.86796 2.06399 9.03596 2.11199L9.01196 2.24399C8.94796 2.22799 8.88396 2.21999 8.81996 2.21999C8.75596 2.21999 8.69196 2.21999 8.62796 2.21999C8.21196 2.21999 7.78396 2.30799 7.34396 2.48399C6.91196 2.65999 6.48796 2.89999 6.07196 3.20399C5.98396 3.29999 5.90396 3.41999 5.83196 3.56399C5.75996 3.70799 5.71996 3.83599 5.71196 3.94799C5.73596 3.93999 5.77196 3.93599 5.81996 3.93599C5.98796 3.93599 6.11996 4.01599 6.21596 4.17599C6.27196 4.27199 6.30396 4.35999 6.31196 4.43999C6.32796 4.51199 6.33596 4.57999 6.33596 4.64399C6.34396 4.72399 6.37996 4.81599 6.44396 4.91999C6.50796 5.01599 6.59196 5.04799 6.69596 5.01599V5.02799C6.69596 5.07599 6.65996 5.11599 6.58796 5.14799C6.53996 5.17199 6.48396 5.18399 6.41996 5.18399C6.28396 5.18399 6.13196 5.13599 5.96396 5.03999C5.79596 4.94399 5.67196 4.83999 5.59196 4.72799C5.50396 4.59999 5.45996 4.47199 5.45996 4.34399C5.45996 4.27199 5.47596 4.20799 5.50796 4.15199C5.53996 4.08799 5.57196 4.03999 5.60396 4.00799L5.61596 3.99599C5.60796 3.89199 5.62396 3.78799 5.66396 3.68399C5.70396 3.57999 5.74796 3.48799 5.79596 3.40799C5.28396 3.81599 4.80796 4.28399 4.36796 4.81199C3.92796 5.33999 3.56396 5.87599 3.27596 6.41999C2.98796 6.95599 2.80796 7.45599 2.73596 7.91999C2.99196 8.05599 3.28796 8.12399 3.62396 8.12399C3.76796 8.12399 3.91596 8.11199 4.06796 8.08799C4.22796 8.05599 4.39596 8.01199 4.57196 7.95599C4.67596 7.89199 4.74796 7.81999 4.78796 7.73999C4.83596 7.65199 4.85996 7.56799 4.85996 7.48799C4.85996 7.28799 4.77196 7.18799 4.59596 7.18799H4.58396C4.55196 7.18799 4.53196 7.17599 4.52396 7.15199C4.51596 7.12799 4.52796 7.10399 4.55996 7.07999C4.59996 7.05599 4.65196 7.04399 4.71596 7.04399C4.76396 7.04399 4.79996 7.04799 4.82396 7.05599C4.89596 7.07999 4.95196 7.13199 4.99196 7.21199V7.13999C4.99196 7.02799 5.04796 6.87999 5.15996 6.69599C5.27996 6.50399 5.41596 6.35599 5.56796 6.25199C5.65596 6.18799 5.75196 6.15599 5.85596 6.15599C5.95996 6.15599 6.05196 6.19599 6.13196 6.27599C6.14796 6.29199 6.15596 6.30799 6.15596 6.32399C6.15596 6.33199 6.10796 6.34399 6.01196 6.35999C5.93196 6.36799 5.85996 6.42399 5.79596 6.52799C5.73996 6.63199 5.71196 6.73999 5.71196 6.85199C5.71196 7.05199 5.69196 7.25199 5.65196 7.45199C5.61196 7.65199 5.54396 7.80399 5.44796 7.90799C5.36796 8.00399 5.27596 8.07599 5.17196 8.12399C5.06796 8.16399 4.96796 8.18399 4.87196 8.18399C4.75996 8.18399 4.65996 8.15199 4.57196 8.08799C4.19596 8.21599 3.83996 8.27999 3.50396 8.27999C3.20796 8.27999 2.94396 8.23199 2.71196 8.13599C2.67996 8.58399 2.77996 8.94799 3.01196 9.22799C3.25196 9.50799 3.66396 9.64399 4.24796 9.63599ZM10.3697 8.95199C10.3377 8.95199 10.3017 8.94799 10.2617 8.93999C10.2217 8.93999 10.1817 8.93599 10.1417 8.92799C9.90974 8.87199 9.74174 8.76799 9.63774 8.61599C9.54174 8.45599 9.49374 8.26399 9.49374 8.03999C9.49374 7.86399 9.51774 7.67599 9.56574 7.47599C9.62174 7.26799 9.68974 7.05199 9.76974 6.82799C9.90574 6.47599 10.0737 6.08799 10.2737 5.66399C10.4817 5.23199 10.7137 4.79199 10.9697 4.34399C11.2337 3.88799 11.5097 3.44799 11.7977 3.02399C12.0937 2.59999 12.3977 2.21599 12.7097 1.87199C12.8937 1.66399 13.0777 1.47599 13.2617 1.30799C13.4537 1.13999 13.6417 1.00399 13.8257 0.899993C14.1377 0.707994 14.4257 0.611994 14.6897 0.611994C14.8497 0.611994 14.9737 0.651994 15.0617 0.731993C15.1577 0.803993 15.2057 0.919994 15.2057 1.07999C15.2057 1.18399 15.1817 1.30399 15.1337 1.43999C15.0937 1.56799 15.0217 1.71599 14.9177 1.88399C14.7177 2.21999 14.4577 2.57199 14.1377 2.93999C13.8257 3.30799 13.4857 3.66799 13.1177 4.01999C12.7497 4.36399 12.3777 4.67999 12.0017 4.96799C11.6337 5.25599 11.2857 5.49199 10.9577 5.67599C10.7977 5.96399 10.6457 6.27199 10.5017 6.59999C10.3577 6.91999 10.2417 7.22799 10.1537 7.52399C10.0657 7.81199 10.0217 8.05999 10.0217 8.26799C10.0217 8.42799 10.0537 8.55599 10.1177 8.65199C10.1817 8.74799 10.2817 8.79599 10.4177 8.79599C10.5937 8.79599 10.7977 8.71599 11.0297 8.55599C11.2617 8.39599 11.5017 8.17999 11.7497 7.90799C12.0057 7.62799 12.2457 7.30399 12.4697 6.93599C12.5097 6.88799 12.5497 6.86399 12.5897 6.86399C12.6137 6.86399 12.6297 6.87999 12.6377 6.91199C12.6537 6.94399 12.6537 6.97599 12.6377 7.00799C12.2457 7.60799 11.8617 8.08399 11.4857 8.43599C11.1177 8.77999 10.7457 8.95199 10.3697 8.95199ZM11.0417 5.44799C11.2977 5.30399 11.5937 5.08399 11.9297 4.78799C12.2737 4.49199 12.6217 4.16399 12.9737 3.80399C13.3257 3.43599 13.6497 3.07199 13.9457 2.71199C14.2497 2.35199 14.4857 2.03599 14.6537 1.76399C14.7417 1.61999 14.8057 1.49599 14.8457 1.39199C14.8857 1.28799 14.9057 1.19999 14.9057 1.12799C14.9057 0.983994 14.8417 0.911994 14.7137 0.911994C14.5457 0.911994 14.3217 1.02799 14.0417 1.25999C13.8417 1.42799 13.6537 1.61599 13.4777 1.82399C13.3017 2.02399 13.1777 2.17199 13.1057 2.26799C12.7377 2.75599 12.3817 3.28799 12.0377 3.86399C11.6937 4.43199 11.3617 4.95999 11.0417 5.44799ZM10.4599 13.512C10.2519 13.512 10.0799 13.452 9.94393 13.332C9.80793 13.212 9.73993 13.052 9.73993 12.852C9.73993 12.756 9.75993 12.648 9.79993 12.528C9.83993 12.416 9.90393 12.3 9.99193 12.18C10.1519 11.956 10.3879 11.704 10.6999 11.424C11.0039 11.152 11.3239 10.892 11.6599 10.644C12.0279 10.364 12.3799 10.116 12.7159 9.89999C13.0599 9.69199 13.3479 9.52399 13.5799 9.39599C13.8199 9.27599 13.9599 9.20799 13.9999 9.19199C14.0159 9.17599 14.0439 9.10799 14.0839 8.98799C14.1319 8.87599 14.1839 8.74799 14.2399 8.60399C14.2959 8.45999 14.3439 8.32799 14.3839 8.20799C14.4319 8.07999 14.4639 7.99599 14.4799 7.95599L14.5879 7.67999C14.4439 7.86399 14.2759 8.05199 14.0839 8.24399C13.8999 8.42799 13.6999 8.58399 13.4839 8.71199C13.2759 8.83999 13.0599 8.90399 12.8359 8.90399C12.5639 8.90399 12.3759 8.81999 12.2719 8.65199C12.1759 8.47599 12.1279 8.28399 12.1279 8.07599C12.1279 7.97199 12.1359 7.87199 12.1519 7.77599C12.1759 7.67199 12.1999 7.57999 12.2239 7.49999C12.2959 7.26799 12.4159 7.01199 12.5839 6.73199C12.7599 6.45199 12.9719 6.18399 13.2199 5.92799C13.4679 5.66399 13.7399 5.44799 14.0359 5.27999C14.3399 5.11199 14.6519 5.02799 14.9719 5.02799C15.2119 5.02799 15.3719 5.08799 15.4519 5.20799C15.5399 5.32799 15.5839 5.46399 15.5839 5.61599C15.5839 5.64799 15.5799 5.67999 15.5719 5.71199C15.5719 5.74399 15.5679 5.77999 15.5599 5.81999C15.6479 5.68399 15.7719 5.51199 15.9319 5.30399C16.0999 5.08799 16.2599 4.91599 16.4119 4.78799C16.5239 4.69999 16.6359 4.65599 16.7479 4.65599C16.8359 4.65599 16.9079 4.67999 16.9639 4.72799C17.0279 4.76799 17.0599 4.81599 17.0599 4.87199C17.0599 4.92799 17.0199 4.97999 16.9399 5.02799C16.6919 5.15599 16.4599 5.29999 16.2439 5.45999C16.0279 5.61199 15.8359 5.79999 15.6679 6.02399C15.5399 6.19999 15.4279 6.41599 15.3319 6.67199C15.2359 6.92799 15.1519 7.19599 15.0799 7.47599C15.0079 7.74799 14.9399 8.01199 14.8759 8.26799C14.8119 8.51599 14.7479 8.72799 14.6839 8.90399C14.8119 8.82399 14.9879 8.68799 15.2119 8.49599C15.4359 8.30399 15.6679 8.07199 15.9079 7.79999C16.1559 7.52799 16.3679 7.23999 16.5439 6.93599C16.5759 6.89599 16.5999 6.87199 16.6159 6.86399C16.6319 6.85599 16.6479 6.85199 16.6639 6.85199C16.6879 6.85199 16.7079 6.86399 16.7239 6.88799C16.7479 6.90399 16.7559 6.92399 16.7479 6.94799C16.5239 7.33999 16.2679 7.69599 15.9799 8.01599C15.6919 8.33599 15.4239 8.59599 15.1759 8.79599C14.9279 8.99599 14.7479 9.11999 14.6359 9.16799C14.4679 9.64799 14.2439 10.156 13.9639 10.692C13.6919 11.236 13.3399 11.748 12.9079 12.228C12.7479 12.404 12.5359 12.592 12.2719 12.792C12.0159 12.992 11.7319 13.16 11.4199 13.296C11.1079 13.44 10.7879 13.512 10.4599 13.512ZM13.0159 8.68799C13.1999 8.68799 13.3919 8.60799 13.5919 8.44799C13.7999 8.28799 14.0039 8.08399 14.2039 7.83599C14.4119 7.58799 14.5999 7.32799 14.7679 7.05599C14.9359 6.78399 15.0719 6.53199 15.1759 6.29999C15.2879 6.06799 15.3519 5.89199 15.3679 5.77199C15.3759 5.73199 15.3799 5.69199 15.3799 5.65199C15.3879 5.60399 15.3919 5.56399 15.3919 5.53199C15.3919 5.27599 15.2999 5.14799 15.1159 5.14799C14.9879 5.14799 14.8399 5.20399 14.6719 5.31599C14.5039 5.42799 14.3319 5.57199 14.1559 5.74799C13.9879 5.92399 13.8279 6.11599 13.6759 6.32399C13.5319 6.52399 13.4159 6.71999 13.3279 6.91199C13.3039 6.95999 13.2439 7.07599 13.1479 7.25999C13.0599 7.44399 12.9719 7.64399 12.8839 7.85999C12.8039 8.07599 12.7639 8.26399 12.7639 8.42399C12.7639 8.59999 12.8479 8.68799 13.0159 8.68799ZM10.4239 13.32C10.6079 13.32 10.8279 13.228 11.0839 13.044C11.3319 12.86 11.5919 12.62 11.8639 12.324C12.1439 12.028 12.4159 11.708 12.6799 11.364C12.9439 11.02 13.1839 10.684 13.3999 10.356C13.6159 10.028 13.7879 9.73999 13.9159 9.49199C13.8039 9.54799 13.6319 9.64399 13.3999 9.77999C13.1679 9.92399 12.9039 10.092 12.6079 10.284C12.3119 10.484 12.0119 10.7 11.7079 10.932C11.4119 11.164 11.1359 11.396 10.8799 11.628C10.6159 11.868 10.4079 12.096 10.2559 12.312C10.0959 12.528 10.0159 12.724 10.0159 12.9C10.0159 12.98 10.0399 13.056 10.0879 13.128C10.1679 13.256 10.2799 13.32 10.4239 13.32ZM16.9381 8.91599C16.7141 8.91599 16.5421 8.83199 16.4221 8.66399C16.3021 8.48799 16.2421 8.26399 16.2421 7.99199C16.2421 7.69599 16.3221 7.35199 16.4821 6.95999C16.5701 6.74399 16.7021 6.52399 16.8781 6.29999C17.0541 6.06799 17.2581 5.85599 17.4901 5.66399C17.7221 5.46399 17.9701 5.30399 18.2341 5.18399C18.5061 5.05599 18.7821 4.99199 19.0621 4.99199C19.2781 4.99199 19.4261 5.04799 19.5061 5.15999C19.5861 5.27199 19.6261 5.40799 19.6261 5.56799C19.6261 5.71999 19.6021 5.87599 19.5541 6.03599L20.2261 5.01599C20.2821 4.97599 20.4061 4.95599 20.5981 4.95599C20.7421 4.95599 20.8781 4.97199 21.0061 5.00399C21.1421 5.03599 21.1821 5.08399 21.1261 5.14799C21.0621 5.22799 20.9501 5.35199 20.7901 5.51999C20.6381 5.67999 20.4701 5.87199 20.2861 6.09599C20.1101 6.31999 19.9421 6.55599 19.7821 6.80399C19.7021 6.93999 19.5821 7.13999 19.4221 7.40399C19.2701 7.66799 19.1501 7.91999 19.0621 8.15999C19.0141 8.30399 18.9901 8.41999 18.9901 8.50799C18.9901 8.67599 19.0621 8.75999 19.2061 8.75999C19.2861 8.75999 19.3941 8.73199 19.5301 8.67599C19.6661 8.61199 19.7981 8.52799 19.9261 8.42399C20.1821 8.21599 20.4061 7.96799 20.5981 7.67999C20.7901 7.38399 20.9621 7.12399 21.1141 6.89999C21.1221 6.89199 21.1301 6.88399 21.1381 6.87599C21.1541 6.86799 21.1781 6.86399 21.2101 6.86399C21.2421 6.86399 21.2661 6.87999 21.2821 6.91199C21.2981 6.93599 21.2901 6.96799 21.2581 7.00799C21.0341 7.34399 20.8141 7.65999 20.5981 7.95599C20.3821 8.24399 20.1621 8.47599 19.9381 8.65199C19.7141 8.82799 19.4701 8.91599 19.2061 8.91599C18.9981 8.91599 18.8301 8.85599 18.7021 8.73599C18.5821 8.60799 18.5221 8.43599 18.5221 8.21999C18.5221 8.12399 18.5301 8.02399 18.5461 7.91999C18.5701 7.81599 18.5981 7.71999 18.6301 7.63199C18.5021 7.79999 18.3421 7.98399 18.1501 8.18399C17.9661 8.38399 17.7701 8.55599 17.5621 8.69999C17.3541 8.84399 17.1461 8.91599 16.9381 8.91599ZM17.0461 8.68799C17.2061 8.68799 17.3741 8.62399 17.5501 8.49599C17.7341 8.36799 17.9181 8.20399 18.1021 8.00399C18.2861 7.79599 18.4541 7.57599 18.6061 7.34399C18.7341 7.15199 18.8581 6.94799 18.9781 6.73199C19.1061 6.51599 19.2101 6.30399 19.2901 6.09599C19.3781 5.88799 19.4221 5.69999 19.4221 5.53199C19.4221 5.27599 19.3301 5.14799 19.1461 5.14799C19.0181 5.14799 18.8701 5.20399 18.7021 5.31599C18.5341 5.42799 18.3621 5.57199 18.1861 5.74799C18.0181 5.92399 17.8581 6.11599 17.7061 6.32399C17.5621 6.52399 17.4461 6.71999 17.3581 6.91199C17.3341 6.95999 17.2741 7.07599 17.1781 7.25999C17.0901 7.44399 17.0021 7.64399 16.9141 7.85999C16.8341 8.07599 16.7941 8.26399 16.7941 8.42399C16.7941 8.59999 16.8781 8.68799 17.0461 8.68799ZM23.6536 9.80399C23.3896 9.78799 23.1376 9.69999 22.8976 9.53999C22.6656 9.37999 22.5496 9.14799 22.5496 8.84399C22.5496 8.75599 22.5616 8.67199 22.5856 8.59199C22.6336 8.38399 22.7616 8.21199 22.9696 8.07599C23.1776 7.93199 23.3856 7.85999 23.5936 7.85999C23.6816 7.75599 23.7936 7.70399 23.9296 7.70399C23.9936 7.70399 24.0536 7.71999 24.1096 7.75199C24.1736 7.78399 24.2256 7.83599 24.2656 7.90799C24.2976 7.91599 24.3416 7.91999 24.3976 7.91999C24.4616 7.91999 24.5176 7.91199 24.5656 7.89599C24.6136 7.87999 24.6416 7.85199 24.6496 7.81199C24.6656 7.75599 24.6896 7.72799 24.7216 7.72799C24.7616 7.72799 24.7856 7.74399 24.7936 7.77599C24.8096 7.83199 24.8016 7.90399 24.7696 7.99199C24.7456 8.07199 24.6616 8.11999 24.5176 8.13599C24.4536 8.13599 24.3936 8.11999 24.3376 8.08799C24.3536 8.15199 24.3616 8.20799 24.3616 8.25599C24.3616 8.28799 24.3576 8.31999 24.3496 8.35199C24.3496 8.37599 24.3456 8.40799 24.3376 8.44799V8.48399C24.3376 8.55599 24.3576 8.61999 24.3976 8.67599C24.4456 8.73199 24.4936 8.74399 24.5416 8.71199C24.5736 8.68799 24.5976 8.67599 24.6136 8.67599C24.6376 8.67599 24.6416 8.69599 24.6256 8.73599C24.5536 8.83999 24.4616 8.89199 24.3496 8.89199C24.3096 8.89199 24.2736 8.88399 24.2416 8.86799C24.1456 8.82799 24.0696 8.76799 24.0136 8.68799C23.9656 8.59999 23.9376 8.51599 23.9296 8.43599C23.9136 8.28399 23.8696 8.17599 23.7976 8.11199C23.7256 8.04799 23.6576 8.00799 23.5936 7.99199C23.5776 7.99199 23.5656 7.98799 23.5576 7.97999C23.4056 8.01199 23.2536 8.09199 23.1016 8.21999C22.9496 8.33999 22.8536 8.47999 22.8136 8.63999C22.8056 8.67199 22.7976 8.70799 22.7896 8.74799C22.7896 8.77999 22.7896 8.81199 22.7896 8.84399C22.7896 9.09199 22.8816 9.28399 23.0656 9.41999C23.2576 9.56399 23.4776 9.63599 23.7256 9.63599C24.0776 9.63599 24.4496 9.50799 24.8416 9.25199C25.2416 9.00399 25.6496 8.66799 26.0656 8.24399C26.4816 7.81199 26.8936 7.33599 27.3016 6.81599C27.7176 6.28799 28.1176 5.74799 28.5016 5.19599C28.8936 4.63599 29.2576 4.10399 29.5936 3.59999C29.7776 3.31999 29.9936 3.01999 30.2416 2.69999C30.4976 2.37999 30.7736 2.05999 31.0696 1.73999C30.6536 1.55599 30.2016 1.41999 29.7136 1.33199C29.2336 1.24399 28.7416 1.19999 28.2376 1.19999C27.5816 1.19999 26.9336 1.28399 26.2936 1.45199C25.6616 1.61199 25.0936 1.86399 24.5896 2.20799C24.0936 2.55199 23.7136 2.99599 23.4496 3.53999C23.2736 3.89999 23.1856 4.24399 23.1856 4.57199C23.1856 4.87599 23.2616 5.14799 23.4136 5.38799L23.4256 5.39999C23.5696 5.45599 23.7216 5.48399 23.8816 5.48399C23.9216 5.48399 23.9576 5.48399 23.9896 5.48399C24.0216 5.47599 24.0536 5.46799 24.0856 5.45999C24.0616 5.41199 24.0496 5.36399 24.0496 5.31599C24.0576 5.21999 24.0896 5.15199 24.1456 5.11199C24.2016 5.06399 24.2536 5.03599 24.3016 5.02799C24.3576 5.01199 24.4136 4.99199 24.4696 4.96799C24.5256 4.94399 24.5656 4.91199 24.5896 4.87199C24.6296 4.80799 24.6496 4.74399 24.6496 4.67999C24.6576 4.61599 24.6656 4.56799 24.6736 4.53599C24.7296 4.59199 24.7656 4.66399 24.7816 4.75199C24.8056 4.83999 24.8176 4.92799 24.8176 5.01599C24.8176 5.22399 24.7696 5.37999 24.6736 5.48399C24.5776 5.57999 24.4736 5.62799 24.3616 5.62799C24.2736 5.62799 24.1976 5.59599 24.1336 5.53199C24.0456 5.56399 23.9536 5.57999 23.8576 5.57999C23.8016 5.57999 23.7456 5.57599 23.6896 5.56799C23.6336 5.55199 23.5736 5.53999 23.5096 5.53199C23.8136 5.88399 24.2336 6.05999 24.7696 6.05999C25.0416 6.05999 25.3016 6.01599 25.5496 5.92799C25.5576 5.92799 25.5616 5.92799 25.5616 5.92799C25.5696 5.91999 25.5776 5.91599 25.5856 5.91599L25.6216 5.90399C25.9976 5.76799 26.3136 5.56399 26.5696 5.29199C26.8336 5.01999 27.0336 4.71999 27.1696 4.39199C27.3136 4.06399 27.3856 3.75599 27.3856 3.46799C27.3856 3.17999 27.3136 2.93999 27.1696 2.74799C27.0336 2.55599 26.8136 2.45599 26.5096 2.44799H26.4976C26.3856 2.44799 26.2856 2.51599 26.1976 2.65199C26.1096 2.77999 26.0576 2.95599 26.0416 3.17999C26.0416 3.28399 25.9936 3.43599 25.8976 3.63599C25.8096 3.82799 25.6936 3.97999 25.5496 4.09199C25.4296 4.17199 25.3216 4.21199 25.2256 4.21199C25.1376 4.21199 25.0616 4.18399 24.9976 4.12799C24.9816 4.11199 24.9736 4.09599 24.9736 4.07999C24.9736 4.06399 25.0216 4.04799 25.1176 4.03199C25.2056 4.01599 25.2776 3.95199 25.3336 3.83999C25.3896 3.71999 25.4136 3.60799 25.4056 3.50399C25.3736 3.14399 25.4296 2.85599 25.5736 2.63999C25.7176 2.41599 25.9336 2.30399 26.2216 2.30399C26.2536 2.30399 26.2816 2.30399 26.3056 2.30399C26.3376 2.30399 26.3696 2.30799 26.4016 2.31599C26.4816 2.31599 26.5576 2.32399 26.6296 2.33999C26.7096 2.35599 26.7776 2.37199 26.8336 2.38799C26.7856 2.34799 26.7376 2.29999 26.6896 2.24399C26.6496 2.17999 26.6296 2.10399 26.6296 2.01599C26.6296 1.94399 26.6616 1.88799 26.7256 1.84799C26.7976 1.80799 26.8696 1.78799 26.9416 1.78799C26.9816 1.78799 27.0176 1.79599 27.0496 1.81199C27.1136 1.85199 27.1456 1.87999 27.1456 1.89599C27.1456 1.92799 27.1056 1.93599 27.0256 1.91999H27.0016C26.9376 1.91999 26.9056 1.95599 26.9056 2.02799C26.9056 2.09999 26.9256 2.18799 26.9656 2.29199C27.0136 2.38799 27.0576 2.45599 27.0976 2.49599H27.0856C27.2456 2.59199 27.3696 2.71999 27.4576 2.87999C27.5456 3.03999 27.5976 3.21199 27.6136 3.39599C27.6376 3.35599 27.6656 3.31599 27.6976 3.27599C27.7296 3.23599 27.7616 3.19599 27.7936 3.15599C27.7536 3.10799 27.7336 3.03999 27.7336 2.95199C27.7336 2.85599 27.7696 2.75599 27.8416 2.65199C27.9136 2.53999 28.0216 2.44399 28.1656 2.36399C28.4216 2.22799 28.7416 2.15999 29.1256 2.15999C29.2616 2.15999 29.3856 2.17199 29.4976 2.19599C29.6096 2.21999 29.6976 2.25999 29.7616 2.31599C29.8176 2.37199 29.8456 2.41599 29.8456 2.44799C29.8536 2.47999 29.8536 2.50399 29.8456 2.51999C29.8136 2.51199 29.7776 2.50799 29.7376 2.50799C29.6976 2.49999 29.6576 2.49599 29.6176 2.49599C29.5216 2.49599 29.4416 2.50799 29.3776 2.53199C29.2896 2.57199 29.2256 2.62799 29.1856 2.69999C29.1456 2.77199 29.0976 2.85599 29.0416 2.95199C28.9856 3.03999 28.8816 3.13199 28.7296 3.22799C28.6016 3.31599 28.4496 3.35999 28.2736 3.35999C28.1456 3.35999 28.0256 3.32799 27.9136 3.26399C27.7536 3.39199 27.6536 3.53199 27.6136 3.68399C27.5816 4.07599 27.4296 4.47599 27.1576 4.88399C26.8936 5.28399 26.5376 5.60799 26.0896 5.85599C26.1536 5.85599 26.2336 5.87599 26.3296 5.91599C26.3856 5.85999 26.4576 5.83199 26.5456 5.83199C26.6496 5.83199 26.7496 5.87999 26.8456 5.97599C26.9416 6.06399 26.9896 6.20799 26.9896 6.40799C26.9896 6.48799 26.9776 6.57999 26.9536 6.68399C26.9296 6.77999 26.8856 6.85999 26.8216 6.92399C26.8216 6.88399 26.8176 6.83599 26.8096 6.77999C26.8096 6.71599 26.7896 6.65199 26.7496 6.58799C26.7256 6.54799 26.6856 6.51599 26.6296 6.49199C26.5816 6.45999 26.5296 6.43599 26.4736 6.41999C26.4256 6.40399 26.3736 6.37599 26.3176 6.33599C26.2616 6.28799 26.2336 6.21999 26.2336 6.13199C26.2336 6.08399 26.2456 6.03599 26.2696 5.98799C26.1976 5.96399 26.1176 5.95199 26.0296 5.95199C26.0056 5.95199 25.9816 5.95199 25.9576 5.95199C25.9336 5.95199 25.9096 5.95599 25.8856 5.96399C25.5176 6.12399 25.1216 6.20399 24.6976 6.20399C24.5216 6.20399 24.3456 6.18799 24.1696 6.15599C23.9936 6.11599 23.8336 6.05599 23.6896 5.97599C23.7616 6.07999 23.7976 6.17599 23.7976 6.26399C23.7976 6.36799 23.7496 6.44399 23.6536 6.49199C23.5576 6.53199 23.4736 6.53999 23.4016 6.51599C23.3696 6.49999 23.3536 6.48799 23.3536 6.47999C23.3536 6.44799 23.3816 6.42799 23.4376 6.41999C23.5016 6.39599 23.5336 6.32399 23.5336 6.20399C23.5336 6.13199 23.5216 6.05599 23.4976 5.97599C23.4816 5.89599 23.4576 5.83999 23.4256 5.80799L23.4136 5.79599C23.1976 5.62799 23.0256 5.41999 22.8976 5.17199C22.7696 4.91599 22.7056 4.63999 22.7056 4.34399C22.7056 3.99199 22.7936 3.63599 22.9696 3.27599C23.1536 2.89999 23.4216 2.56399 23.7736 2.26799C23.7336 2.27599 23.6896 2.28799 23.6416 2.30399C23.5936 2.31199 23.5456 2.31599 23.4976 2.31599C23.4016 2.31599 23.3136 2.29599 23.2336 2.25599C23.1776 2.22399 23.1376 2.17999 23.1136 2.12399C23.0896 2.05999 23.0776 1.99999 23.0776 1.94399C23.0776 1.83999 23.1056 1.75199 23.1616 1.67999C23.1856 1.65599 23.2056 1.64399 23.2216 1.64399C23.2456 1.64399 23.2576 1.68799 23.2576 1.77599C23.2576 1.84799 23.3016 1.91199 23.3896 1.96799C23.4856 2.01599 23.5936 2.05199 23.7136 2.07599C23.8336 2.09199 23.9256 2.09199 23.9896 2.07599L24.0856 2.02799C24.6056 1.67599 25.2176 1.41199 25.9216 1.23599C26.6336 1.05999 27.3656 0.971994 28.1176 0.971994C28.6776 0.971994 29.2256 1.01999 29.7616 1.11599C30.3056 1.21199 30.8096 1.35199 31.2736 1.53599C31.4576 1.35199 31.6416 1.17599 31.8256 1.00799C32.0176 0.831994 32.2096 0.671994 32.4016 0.527994C32.6656 0.327994 32.9296 0.191993 33.1936 0.119993C33.4576 0.0399935 33.7016 -6.4373e-06 33.9256 -6.4373e-06C34.1576 -6.4373e-06 34.3496 0.0319936 34.5016 0.0959938C34.6536 0.159994 34.7456 0.235994 34.7776 0.323994L34.7056 0.371994C34.6416 0.299994 34.5496 0.239994 34.4296 0.191994C34.3096 0.143994 34.1696 0.119993 34.0096 0.119993C33.8256 0.119993 33.6056 0.163994 33.3496 0.251994C33.1016 0.339994 32.8256 0.495994 32.5216 0.719994C32.3856 0.823994 32.2376 0.959994 32.0776 1.12799C31.9256 1.28799 31.7656 1.47199 31.5976 1.67999C32.1816 1.95199 32.6536 2.30399 33.0136 2.73599C33.3816 3.16799 33.5656 3.67199 33.5656 4.24799C33.5656 4.63999 33.4696 4.99599 33.2776 5.31599C33.0856 5.63599 32.8296 5.91199 32.5096 6.14399C32.1896 6.37599 31.8376 6.55599 31.4536 6.68399C31.0776 6.80399 30.7016 6.86399 30.3256 6.86399C30.2056 6.86399 30.0856 6.85999 29.9656 6.85199C29.8456 6.83599 29.7296 6.81199 29.6176 6.77999C29.4096 6.72399 29.2176 6.64799 29.0416 6.55199C28.8736 6.45599 28.7336 6.35599 28.6216 6.25199C27.8616 7.38799 27.0656 8.27599 26.2336 8.91599C25.4016 9.55599 24.5416 9.85199 23.6536 9.80399ZM30.2056 6.64799C30.5496 6.64799 30.8616 6.60399 31.1416 6.51599C31.5976 6.37199 31.9616 6.16799 32.2336 5.90399C32.5136 5.63199 32.7176 5.34399 32.8456 5.03999C32.9736 4.72799 33.0376 4.43999 33.0376 4.17599C33.0376 3.67999 32.8896 3.23999 32.5936 2.85599C32.2976 2.47199 31.9096 2.15599 31.4296 1.90799C31.1336 2.29999 30.8336 2.73199 30.5296 3.20399C30.2256 3.67599 29.9336 4.13999 29.6536 4.59599C29.3816 5.04399 29.1376 5.43999 28.9216 5.78399C28.8896 5.83999 28.8536 5.89999 28.8136 5.96399C28.7736 6.01999 28.7336 6.07599 28.6936 6.13199C28.8776 6.31599 29.1056 6.44799 29.3776 6.52799C29.6496 6.60799 29.9256 6.64799 30.2056 6.64799ZM33.5787 8.91599C33.3547 8.91599 33.1827 8.83199 33.0627 8.66399C32.9427 8.48799 32.8827 8.26399 32.8827 7.99199C32.8827 7.69599 32.9627 7.35199 33.1227 6.95999C33.2107 6.74399 33.3427 6.52399 33.5187 6.29999C33.6947 6.06799 33.8987 5.85599 34.1307 5.66399C34.3627 5.46399 34.6107 5.30399 34.8747 5.18399C35.1467 5.05599 35.4227 4.99199 35.7027 4.99199C35.9187 4.99199 36.0667 5.04799 36.1467 5.15999C36.2267 5.27199 36.2667 5.40799 36.2667 5.56799C36.2667 5.71999 36.2427 5.87599 36.1947 6.03599L36.8667 5.01599C36.9227 4.97599 37.0467 4.95599 37.2387 4.95599C37.3827 4.95599 37.5187 4.97199 37.6467 5.00399C37.7827 5.03599 37.8227 5.08399 37.7667 5.14799C37.7027 5.22799 37.5907 5.35199 37.4307 5.51999C37.2787 5.67999 37.1107 5.87199 36.9267 6.09599C36.7507 6.31999 36.5827 6.55599 36.4227 6.80399C36.3427 6.93999 36.2227 7.13999 36.0627 7.40399C35.9107 7.66799 35.7907 7.91999 35.7027 8.15999C35.6547 8.30399 35.6307 8.41999 35.6307 8.50799C35.6307 8.67599 35.7027 8.75999 35.8467 8.75999C35.9267 8.75999 36.0347 8.73199 36.1707 8.67599C36.3067 8.61199 36.4387 8.52799 36.5667 8.42399C36.8227 8.21599 37.0467 7.96799 37.2387 7.67999C37.4307 7.38399 37.6027 7.12399 37.7547 6.89999C37.7627 6.89199 37.7707 6.88399 37.7787 6.87599C37.7947 6.86799 37.8187 6.86399 37.8507 6.86399C37.8827 6.86399 37.9067 6.87999 37.9227 6.91199C37.9387 6.93599 37.9307 6.96799 37.8987 7.00799C37.6747 7.34399 37.4547 7.65999 37.2387 7.95599C37.0227 8.24399 36.8027 8.47599 36.5787 8.65199C36.3547 8.82799 36.1107 8.91599 35.8467 8.91599C35.6387 8.91599 35.4707 8.85599 35.3427 8.73599C35.2227 8.60799 35.1627 8.43599 35.1627 8.21999C35.1627 8.12399 35.1707 8.02399 35.1867 7.91999C35.2107 7.81599 35.2387 7.71999 35.2707 7.63199C35.1427 7.79999 34.9827 7.98399 34.7907 8.18399C34.6067 8.38399 34.4107 8.55599 34.2027 8.69999C33.9947 8.84399 33.7867 8.91599 33.5787 8.91599ZM33.6867 8.68799C33.8467 8.68799 34.0147 8.62399 34.1907 8.49599C34.3747 8.36799 34.5587 8.20399 34.7427 8.00399C34.9267 7.79599 35.0947 7.57599 35.2467 7.34399C35.3747 7.15199 35.4987 6.94799 35.6187 6.73199C35.7467 6.51599 35.8507 6.30399 35.9307 6.09599C36.0187 5.88799 36.0627 5.69999 36.0627 5.53199C36.0627 5.27599 35.9707 5.14799 35.7867 5.14799C35.6587 5.14799 35.5107 5.20399 35.3427 5.31599C35.1747 5.42799 35.0027 5.57199 34.8267 5.74799C34.6587 5.92399 34.4987 6.11599 34.3467 6.32399C34.2027 6.52399 34.0867 6.71999 33.9987 6.91199C33.9747 6.95999 33.9147 7.07599 33.8187 7.25999C33.7307 7.44399 33.6427 7.64399 33.5547 7.85999C33.4747 8.07599 33.4347 8.26399 33.4347 8.42399C33.4347 8.59999 33.5187 8.68799 33.6867 8.68799ZM38.2216 8.93999C37.7576 8.93999 37.5256 8.70399 37.5256 8.23199C37.5256 8.03199 37.5576 7.82399 37.6216 7.60799C37.6936 7.39199 37.7696 7.20799 37.8496 7.05599C37.8416 7.06399 37.8296 7.06799 37.8136 7.06799C37.7816 7.06799 37.7576 7.05199 37.7416 7.01999C37.7256 6.98799 37.7216 6.95999 37.7296 6.93599C37.8016 6.83199 37.8976 6.69599 38.0176 6.52799C38.1376 6.35999 38.2656 6.18399 38.4016 5.99999C38.5456 5.80799 38.6776 5.62799 38.7976 5.45999C38.9256 5.28399 39.0296 5.14399 39.1096 5.03999C39.1736 5.02399 39.2576 4.99999 39.3616 4.96799C39.4736 4.93599 39.5816 4.91999 39.6856 4.91999C39.7976 4.91999 39.8816 4.95199 39.9376 5.01599C39.8336 5.18399 39.6776 5.41599 39.4696 5.71199C39.2616 5.99999 39.0456 6.31599 38.8216 6.65999C38.6056 6.99599 38.4176 7.32799 38.2576 7.65599C38.1056 7.97599 38.0296 8.25199 38.0296 8.48399C38.0296 8.60399 38.0496 8.68399 38.0896 8.72399C38.1376 8.76399 38.1896 8.78399 38.2456 8.78399C38.2936 8.78399 38.3536 8.77199 38.4256 8.74799C38.5056 8.71599 38.5976 8.67199 38.7016 8.61599C38.8856 8.51199 39.0616 8.37599 39.2296 8.20799C39.4056 8.03999 39.5616 7.86799 39.6976 7.69199C39.8416 7.51599 39.9576 7.37199 40.0456 7.25999C40.0216 7.16399 40.0096 7.04799 40.0096 6.91199C40.0096 6.75199 40.0216 6.58799 40.0456 6.41999C40.0776 6.25199 40.1096 6.10399 40.1416 5.97599C40.1896 5.81599 40.2496 5.65999 40.3216 5.50799C40.4016 5.35599 40.4856 5.23199 40.5736 5.13599C40.6696 5.03199 40.7536 4.97999 40.8256 4.97999C40.8896 4.97999 40.9496 5.01199 41.0056 5.07599C41.0696 5.13199 41.1016 5.21599 41.1016 5.32799C41.1016 5.39999 41.0896 5.48799 41.0656 5.59199C41.0496 5.69599 41.0176 5.81599 40.9696 5.95199C40.9136 6.11999 40.8296 6.30399 40.7176 6.50399C40.6056 6.69599 40.5016 6.86399 40.4056 7.00799C40.3096 7.15199 40.2496 7.23999 40.2256 7.27199C40.2336 7.31199 40.2696 7.39599 40.3336 7.52399C40.4056 7.64399 40.5096 7.70399 40.6456 7.70399C40.8296 7.70399 41.0016 7.62799 41.1616 7.47599C41.3296 7.31599 41.4736 7.13599 41.5936 6.93599C41.6256 6.90399 41.6656 6.88799 41.7136 6.88799C41.7296 6.88799 41.7456 6.89999 41.7616 6.92399C41.7776 6.93999 41.7776 6.96799 41.7616 7.00799C41.5456 7.35199 41.3416 7.58399 41.1496 7.70399C40.9576 7.81599 40.7856 7.87199 40.6336 7.87199C40.4816 7.87199 40.3576 7.82799 40.2616 7.73999C40.1736 7.65199 40.1176 7.56799 40.0936 7.48799C40.0296 7.58399 39.9376 7.71199 39.8176 7.87199C39.6976 8.03199 39.5536 8.19599 39.3856 8.36399C39.2256 8.52399 39.0456 8.65999 38.8456 8.77199C38.6456 8.88399 38.4376 8.93999 38.2216 8.93999ZM43.8767 4.47599C43.7647 4.47599 43.6767 4.43999 43.6127 4.36799C43.5567 4.29599 43.5287 4.21199 43.5287 4.11599C43.5287 3.95599 43.5847 3.82799 43.6967 3.73199C43.8087 3.63599 43.9287 3.58799 44.0567 3.58799C44.1687 3.58799 44.2567 3.62399 44.3207 3.69599C44.3847 3.75999 44.4167 3.84399 44.4167 3.94799C44.4167 4.09999 44.3607 4.22799 44.2487 4.33199C44.1367 4.42799 44.0127 4.47599 43.8767 4.47599ZM41.8847 8.98799C41.6687 8.98799 41.4847 8.92399 41.3327 8.79599C41.1887 8.65999 41.1167 8.46799 41.1167 8.21999C41.1167 8.09199 41.1407 7.94399 41.1887 7.77599C41.2447 7.59999 41.3087 7.43999 41.3807 7.29599C41.4607 7.14399 41.5287 7.01999 41.5847 6.92399C41.6487 6.82799 41.6807 6.77999 41.6807 6.77999L42.8567 5.03999C42.9047 4.99999 42.9647 4.97599 43.0367 4.96799C43.1087 4.95199 43.1847 4.94399 43.2647 4.94399C43.3767 4.94399 43.4727 4.95599 43.5527 4.97999C43.6327 4.99599 43.6647 5.02399 43.6487 5.06399L42.4607 6.82799C42.4367 6.85999 42.3567 6.97199 42.2207 7.16399C42.0927 7.34799 41.9687 7.55199 41.8487 7.77599C41.6967 8.05599 41.6207 8.29599 41.6207 8.49599C41.6207 8.71199 41.7207 8.81999 41.9207 8.81999C41.9847 8.81999 42.0607 8.80799 42.1487 8.78399C42.2447 8.75199 42.3527 8.70399 42.4727 8.63999C42.9767 8.35999 43.4927 7.79199 44.0207 6.93599C44.0447 6.89599 44.0647 6.87599 44.0807 6.87599C44.1047 6.86799 44.1207 6.86399 44.1287 6.86399C44.1687 6.86399 44.1927 6.87999 44.2007 6.91199C44.2167 6.93599 44.2127 6.96799 44.1887 7.00799C43.9007 7.44799 43.6167 7.82799 43.3367 8.14799C43.0647 8.46799 42.7767 8.69999 42.4727 8.84399C42.2727 8.93999 42.0767 8.98799 41.8847 8.98799ZM44.6705 8.95199C44.6385 8.95199 44.6025 8.94799 44.5625 8.93999C44.5225 8.93999 44.4825 8.93599 44.4425 8.92799C44.2105 8.87199 44.0425 8.76799 43.9385 8.61599C43.8425 8.45599 43.7945 8.26399 43.7945 8.03999C43.7945 7.86399 43.8185 7.67599 43.8665 7.47599C43.9225 7.26799 43.9905 7.05199 44.0705 6.82799C44.2065 6.47599 44.3745 6.08799 44.5745 5.66399C44.7825 5.23199 45.0145 4.79199 45.2705 4.34399C45.5345 3.88799 45.8105 3.44799 46.0985 3.02399C46.3945 2.59999 46.6985 2.21599 47.0105 1.87199C47.1945 1.66399 47.3785 1.47599 47.5625 1.30799C47.7545 1.13999 47.9425 1.00399 48.1265 0.899993C48.4385 0.707994 48.7265 0.611994 48.9905 0.611994C49.1505 0.611994 49.2745 0.651994 49.3625 0.731993C49.4585 0.803993 49.5065 0.919994 49.5065 1.07999C49.5065 1.18399 49.4825 1.30399 49.4345 1.43999C49.3945 1.56799 49.3225 1.71599 49.2185 1.88399C49.0185 2.21999 48.7585 2.57199 48.4385 2.93999C48.1265 3.30799 47.7865 3.66799 47.4185 4.01999C47.0505 4.36399 46.6785 4.67999 46.3025 4.96799C45.9345 5.25599 45.5865 5.49199 45.2585 5.67599C45.0985 5.96399 44.9465 6.27199 44.8025 6.59999C44.6585 6.91999 44.5425 7.22799 44.4545 7.52399C44.3665 7.81199 44.3225 8.05999 44.3225 8.26799C44.3225 8.42799 44.3545 8.55599 44.4185 8.65199C44.4825 8.74799 44.5825 8.79599 44.7185 8.79599C44.8945 8.79599 45.0985 8.71599 45.3305 8.55599C45.5625 8.39599 45.8025 8.17999 46.0505 7.90799C46.3065 7.62799 46.5465 7.30399 46.7705 6.93599C46.8105 6.88799 46.8505 6.86399 46.8905 6.86399C46.9145 6.86399 46.9305 6.87999 46.9385 6.91199C46.9545 6.94399 46.9545 6.97599 46.9385 7.00799C46.5465 7.60799 46.1625 8.08399 45.7865 8.43599C45.4185 8.77999 45.0465 8.95199 44.6705 8.95199ZM45.3425 5.44799C45.5985 5.30399 45.8945 5.08399 46.2305 4.78799C46.5745 4.49199 46.9225 4.16399 47.2745 3.80399C47.6265 3.43599 47.9505 3.07199 48.2465 2.71199C48.5505 2.35199 48.7865 2.03599 48.9545 1.76399C49.0425 1.61999 49.1065 1.49599 49.1465 1.39199C49.1865 1.28799 49.2065 1.19999 49.2065 1.12799C49.2065 0.983994 49.1425 0.911994 49.0145 0.911994C48.8465 0.911994 48.6225 1.02799 48.3425 1.25999C48.1425 1.42799 47.9545 1.61599 47.7785 1.82399C47.6025 2.02399 47.4785 2.17199 47.4065 2.26799C47.0385 2.75599 46.6825 3.28799 46.3385 3.86399C45.9945 4.43199 45.6625 4.95999 45.3425 5.44799ZM49.0447 4.47599C48.9327 4.47599 48.8447 4.43999 48.7807 4.36799C48.7247 4.29599 48.6967 4.21199 48.6967 4.11599C48.6967 3.95599 48.7527 3.82799 48.8647 3.73199C48.9767 3.63599 49.0967 3.58799 49.2247 3.58799C49.3367 3.58799 49.4247 3.62399 49.4887 3.69599C49.5527 3.75999 49.5847 3.84399 49.5847 3.94799C49.5847 4.09999 49.5287 4.22799 49.4167 4.33199C49.3047 4.42799 49.1807 4.47599 49.0447 4.47599ZM47.0527 8.98799C46.8367 8.98799 46.6527 8.92399 46.5007 8.79599C46.3567 8.65999 46.2847 8.46799 46.2847 8.21999C46.2847 8.09199 46.3087 7.94399 46.3567 7.77599C46.4127 7.59999 46.4767 7.43999 46.5487 7.29599C46.6287 7.14399 46.6967 7.01999 46.7527 6.92399C46.8167 6.82799 46.8487 6.77999 46.8487 6.77999L48.0247 5.03999C48.0727 4.99999 48.1327 4.97599 48.2047 4.96799C48.2767 4.95199 48.3527 4.94399 48.4327 4.94399C48.5447 4.94399 48.6407 4.95599 48.7207 4.97999C48.8007 4.99599 48.8327 5.02399 48.8167 5.06399L47.6287 6.82799C47.6047 6.85999 47.5247 6.97199 47.3887 7.16399C47.2607 7.34799 47.1367 7.55199 47.0167 7.77599C46.8647 8.05599 46.7887 8.29599 46.7887 8.49599C46.7887 8.71199 46.8887 8.81999 47.0887 8.81999C47.1527 8.81999 47.2287 8.80799 47.3167 8.78399C47.4127 8.75199 47.5207 8.70399 47.6407 8.63999C48.1447 8.35999 48.6607 7.79199 49.1887 6.93599C49.2127 6.89599 49.2327 6.87599 49.2487 6.87599C49.2727 6.86799 49.2887 6.86399 49.2967 6.86399C49.3367 6.86399 49.3607 6.87999 49.3687 6.91199C49.3847 6.93599 49.3807 6.96799 49.3567 7.00799C49.0687 7.44799 48.7847 7.82799 48.5047 8.14799C48.2327 8.46799 47.9447 8.69999 47.6407 8.84399C47.4407 8.93999 47.2447 8.98799 47.0527 8.98799ZM52.0825 9.01199C51.8905 9.01199 51.7265 8.95199 51.5905 8.83199C51.4545 8.70399 51.3865 8.52399 51.3865 8.29199C51.3865 8.01199 51.4665 7.72399 51.6265 7.42799C51.7865 7.12399 51.9745 6.82399 52.1905 6.52799C52.4065 6.23199 52.5945 5.95999 52.7545 5.71199C52.8425 5.55999 52.8865 5.43599 52.8865 5.33999C52.8865 5.22799 52.8345 5.17199 52.7305 5.17199C52.6505 5.17199 52.5305 5.22399 52.3705 5.32799C52.2105 5.42399 52.0065 5.59199 51.7585 5.83199C51.5185 6.07199 51.2865 6.33999 51.0625 6.63599C50.8465 6.92399 50.6465 7.21199 50.4625 7.49999C50.2865 7.78799 50.1305 8.05199 49.9945 8.29199C49.8665 8.53199 49.7705 8.71599 49.7065 8.84399C49.6505 8.86799 49.5785 8.88399 49.4905 8.89199C49.4105 8.89999 49.3265 8.90399 49.2385 8.90399C49.0385 8.90399 48.9065 8.89199 48.8425 8.86799C48.9465 8.72399 49.0825 8.52399 49.2505 8.26799C49.4265 8.01199 49.6105 7.73599 49.8025 7.43999C49.9945 7.13599 50.1705 6.85199 50.3305 6.58799C50.4185 6.43599 50.5145 6.27199 50.6185 6.09599C50.7225 5.91999 50.8105 5.75599 50.8825 5.60399C50.9545 5.44399 50.9905 5.32399 50.9905 5.24399C50.9905 5.16399 50.9585 5.12399 50.8945 5.12399C50.8545 5.12399 50.8025 5.14399 50.7385 5.18399C50.6745 5.22399 50.6145 5.27599 50.5585 5.33999C50.4385 5.45999 50.2825 5.64799 50.0905 5.90399C49.9065 6.15199 49.6625 6.51999 49.3585 7.00799C49.3345 7.04799 49.2945 7.06799 49.2385 7.06799C49.1745 7.06799 49.1585 7.02399 49.1905 6.93599C49.3345 6.70399 49.4825 6.47199 49.6345 6.23999C49.7865 5.99999 49.9385 5.77599 50.0905 5.56799C50.2505 5.35999 50.3985 5.19599 50.5345 5.07599C50.6785 4.94799 50.8305 4.88399 50.9905 4.88399C51.1425 4.88399 51.2585 4.93599 51.3385 5.03999C51.4185 5.14399 51.4585 5.26399 51.4585 5.39999C51.4585 5.55999 51.4225 5.73599 51.3505 5.92799C51.3825 5.89599 51.4105 5.86399 51.4345 5.83199C51.4665 5.79999 51.4985 5.76799 51.5305 5.73599C51.8105 5.43999 52.0825 5.22399 52.3465 5.08799C52.6185 4.94399 52.8545 4.87199 53.0545 4.87199C53.2065 4.87199 53.3345 4.91199 53.4385 4.99199C53.5505 5.07199 53.6065 5.17999 53.6065 5.31599C53.6065 5.47599 53.5505 5.66799 53.4385 5.89199C53.3265 6.11599 53.1985 6.32799 53.0545 6.52799C52.9185 6.72799 52.8065 6.88399 52.7185 6.99599C52.6625 7.07599 52.5545 7.22399 52.3945 7.43999C52.2345 7.64799 52.0985 7.86399 51.9865 8.08799C51.9305 8.18399 51.8905 8.27199 51.8665 8.35199C51.8505 8.42399 51.8425 8.49199 51.8425 8.55599C51.8425 8.73999 51.9265 8.83199 52.0945 8.83199C52.2785 8.83199 52.5065 8.72399 52.7785 8.50799C52.9945 8.33999 53.2145 8.12399 53.4385 7.85999C53.6705 7.58799 53.8905 7.27999 54.0985 6.93599C54.1225 6.89599 54.1465 6.87599 54.1705 6.87599C54.1945 6.86799 54.2105 6.86399 54.2185 6.86399C54.2745 6.86399 54.2905 6.91199 54.2665 7.00799C54.0345 7.37599 53.7905 7.71599 53.5345 8.02799C53.2865 8.33999 53.0345 8.58799 52.7785 8.77199C52.5465 8.93199 52.3145 9.01199 52.0825 9.01199ZM54.4966 8.91599C54.2726 8.91599 54.1006 8.83199 53.9806 8.66399C53.8606 8.48799 53.8006 8.26399 53.8006 7.99199C53.8006 7.69599 53.8806 7.35199 54.0406 6.95999C54.1286 6.74399 54.2606 6.52399 54.4366 6.29999C54.6126 6.06799 54.8166 5.85599 55.0486 5.66399C55.2806 5.46399 55.5286 5.30399 55.7926 5.18399C56.0646 5.05599 56.3406 4.99199 56.6206 4.99199C56.8366 4.99199 56.9846 5.04799 57.0646 5.15999C57.1446 5.27199 57.1846 5.40799 57.1846 5.56799C57.1846 5.71999 57.1606 5.87599 57.1126 6.03599L57.7846 5.01599C57.8406 4.97599 57.9646 4.95599 58.1566 4.95599C58.3006 4.95599 58.4366 4.97199 58.5646 5.00399C58.7006 5.03599 58.7406 5.08399 58.6846 5.14799C58.6206 5.22799 58.5086 5.35199 58.3486 5.51999C58.1966 5.67999 58.0286 5.87199 57.8446 6.09599C57.6686 6.31999 57.5006 6.55599 57.3406 6.80399C57.2606 6.93999 57.1406 7.13999 56.9806 7.40399C56.8286 7.66799 56.7086 7.91999 56.6206 8.15999C56.5726 8.30399 56.5486 8.41999 56.5486 8.50799C56.5486 8.67599 56.6206 8.75999 56.7646 8.75999C56.8446 8.75999 56.9526 8.73199 57.0886 8.67599C57.2246 8.61199 57.3566 8.52799 57.4846 8.42399C57.7406 8.21599 57.9646 7.96799 58.1566 7.67999C58.3486 7.38399 58.5206 7.12399 58.6726 6.89999C58.6806 6.89199 58.6886 6.88399 58.6966 6.87599C58.7126 6.86799 58.7366 6.86399 58.7686 6.86399C58.8006 6.86399 58.8246 6.87999 58.8406 6.91199C58.8566 6.93599 58.8486 6.96799 58.8166 7.00799C58.5926 7.34399 58.3726 7.65999 58.1566 7.95599C57.9406 8.24399 57.7206 8.47599 57.4966 8.65199C57.2726 8.82799 57.0286 8.91599 56.7646 8.91599C56.5566 8.91599 56.3886 8.85599 56.2606 8.73599C56.1406 8.60799 56.0806 8.43599 56.0806 8.21999C56.0806 8.12399 56.0886 8.02399 56.1046 7.91999C56.1286 7.81599 56.1566 7.71999 56.1886 7.63199C56.0606 7.79999 55.9006 7.98399 55.7086 8.18399C55.5246 8.38399 55.3286 8.55599 55.1206 8.69999C54.9126 8.84399 54.7046 8.91599 54.4966 8.91599ZM54.6046 8.68799C54.7646 8.68799 54.9326 8.62399 55.1086 8.49599C55.2926 8.36799 55.4766 8.20399 55.6606 8.00399C55.8446 7.79599 56.0126 7.57599 56.1646 7.34399C56.2926 7.15199 56.4166 6.94799 56.5366 6.73199C56.6646 6.51599 56.7686 6.30399 56.8486 6.09599C56.9366 5.88799 56.9806 5.69999 56.9806 5.53199C56.9806 5.27599 56.8886 5.14799 56.7046 5.14799C56.5766 5.14799 56.4286 5.20399 56.2606 5.31599C56.0926 5.42799 55.9206 5.57199 55.7446 5.74799C55.5766 5.92399 55.4166 6.11599 55.2646 6.32399C55.1206 6.52399 55.0046 6.71999 54.9166 6.91199C54.8926 6.95999 54.8326 7.07599 54.7366 7.25999C54.6486 7.44399 54.5606 7.64399 54.4726 7.85999C54.3926 8.07599 54.3526 8.26399 54.3526 8.42399C54.3526 8.59999 54.4366 8.68799 54.6046 8.68799Z" fill="white"/>
</svg>
